<svg xmlns="http://www.w3.org/2000/svg" version="1.0" width="1280.000000pt" height="840.000000pt" viewBox="0 0 1280.000000 840.000000" preserveAspectRatio="xMidYMid meet">
<metadata>
Created by potrace 1.15, written by Peter Selinger 2001-2017
</metadata>
<g transform="translate(0.000000,840.000000) scale(0.100000,-0.100000)" fill="#000000" stroke="none">
<path d="M9570 8367 c0 -8 24 -119 54 -248 88 -380 85 -320 27 -520 -133 -462 -234 -728 -551 -1453 -516 -1181 -565 -1277 -846 -1678 -68 -97 -124 -179 -124 -182 0 -3 10 -6 22 -6 12 0 19 -2 17 -4 -2 -2 -177 -14 -389 -25 -212 -12 -467 -25 -567 -31 -101 -5 -266 -15 -368 -20 -102 -6 -267 -15 -367 -20 -101 -6 -520 -28 -933 -50 -412 -22 -832 -44 -933 -50 -100 -5 -266 -14 -370 -20 -103 -5 -227 -12 -277 -15 -88 -6 -93 -5 -239 44 -141 48 -226 89 -226 111 0 5 20 101 45 215 56 255 75 375 75 486 0 100 -15 129 -77 150 -47 15 -220 6 -239 -13 -7 -7 -72 -121 -143 -253 -78 -146 -134 -240 -143 -239 -8 1 -423 296 -923 655 -501 360 -932 670 -958 688 l-48 33 -192 -22 c-106 -12 -194 -24 -196 -26 -2 -2 16 -30 40 -61 25 -32 384 -491 798 -1020 414 -530 750 -967 747 -972 -3 -5 -27 -12 -53 -16 -70 -10 -179 -54 -208 -82 -17 -18 -25 -37 -25 -61 0 -47 57 -101 139 -133 34 -13 61 -27 61 -31 0 -3 -412 -214 -916 -468 -504 -254 -928 -468 -941 -475 l-25 -13 29 -6 c15 -3 66 -7 113 -8 l85 -2 366 132 c528 190 1000 374 1349 527 168 73 321 138 341 143 32 8 65 0 300 -79 351 -117 484 -154 1144 -320 1033 -258 1154 -273 1950 -236 193 9 420 19 505 22 l155 5 -1040 -520 c-1546 -772 -2038 -1010 -2505 -1212 -479 -207 -1205 -495 -1865 -740 l-460 -170 -310 32 c-170 17 -332 34 -360 37 -77 9 -49 -4 35 -16 93 -14 131 -19 460 -71 146 -23 293 -46 328 -51 l62 -9 618 191 c339 105 759 235 932 289 244 75 491 165 1100 398 1304 498 2009 777 2285 903 l259 119 51 -14 c27 -8 123 -26 212 -41 l162 -27 66 37 c36 21 68 35 70 33 3 -2 -1 -24 -8 -48 -12 -41 -16 -44 -77 -67 -36 -14 -66 -26 -68 -28 -2 -2 24 -22 57 -46 51 -36 62 -49 66 -78 27 -179 78 -252 217 -316 165 -75 637 -125 909 -96 259 28 330 57 403 164 61 90 88 177 93 302 6 126 -9 200 -59 302 -56 115 -137 180 -260 207 -99 23 -350 38 -450 28 -48 -5 -98 -7 -112 -5 -13 3 -55 -4 -93 -16 -123 -37 -155 -41 -388 -40 l-230 0 175 66 c854 320 1045 387 1397 488 199 58 386 107 415 110 110 11 760 35 1218 45 960 20 1267 46 1615 135 606 156 899 290 1065 489 73 88 92 129 85 185 -22 182 -389 430 -895 603 -227 78 -386 110 -603 124 l-99 6 6 32 c4 17 9 78 12 136 5 81 2 120 -11 170 -47 181 -165 301 -325 330 -113 20 -343 31 -440 21 -52 -6 -105 -8 -117 -5 -12 3 -50 -3 -85 -14 -130 -42 -204 -53 -309 -46 -55 4 -99 11 -99 16 0 5 13 71 30 146 110 509 163 894 310 2242 19 171 36 288 43 292 8 5 2 18 -18 42 -92 110 -541 615 -547 615 -5 1 -8 -5 -8 -12z"/>
</g>
</svg>